# This file uses centimeters as units for non-parametric coordinates.

v 420.331787 -1.818577 175.674713
v 270.043823 -1.820865 175.674713
v 420.331787 103.923309 175.674713
v 252.758362 103.923286 175.674713
v 252.766174 83.333336 175.674713
v 170.148010 16.666664 175.674713
v 149.493469 16.666668 175.674713
v 149.493469 -1.818577 175.674713
v 232.105377 83.333321 175.674713
v 232.111633 66.666664 175.674713
v 211.452408 66.666649 175.674713
v 211.457092 49.999996 175.674713
v 190.799438 49.999992 175.674713
v 190.802551 33.333332 175.674713
v 170.146454 33.333332 175.674713
v 420.331787 239.864563 -400.000488
v 252.758362 239.864578 -400.000488
v 420.331787 239.864563 -227.768738
v 252.758362 239.864563 -227.768707
v 420.331787 91.906891 21.069199
v 420.331787 -1.821334 21.069206
v 269.995331 -1.821334 21.069229
v 149.493469 16.666666 21.069221
v 170.148010 16.666666 21.069221
v 149.493469 -1.818571 21.069221
v 232.111633 66.666664 21.069221
v 232.105377 83.333321 21.069221
v 252.766174 83.333336 21.069221
v 211.457092 49.999996 21.069221
v 211.452408 66.666649 21.069221
v 190.802551 33.333332 21.069221
v 190.799438 49.999992 21.069221
v 170.146454 33.333332 21.069221
v 269.995331 91.906891 21.069229
v 420.331787 103.923309 21.069199
v 250.049637 103.923294 21.069193
v 420.331787 274.005615 -233.496811
v 252.758362 274.005585 -233.496811
v 420.331787 274.005615 -399.652039
v 252.758362 274.005585 -399.652039
v 252.766174 103.923286 21.069199
v 420.331787 83.333336 175.674713
v 250.049637 103.923286 21.069229
v 250.049637 271.486481 -237.522614
v 250.049637 271.486572 -400.000488
v 250.000000 0.000000 -400.000000
v 250.000000 0.000000 -340.411652
v 250.049637 220.000000 -340.411652
v 250.000000 -0.000000 -220.411652
v 250.000000 0.000000 20.256271
v 250.049637 220.000000 -220.411652
v 277.703033 0.000000 20.256271
v 277.752686 98.887894 21.069229
v 277.752686 271.486481 -237.522614
v 277.752686 271.486572 -400.000488
v 277.703033 0.000000 -400.000000
v 277.703033 0.000000 -340.411652
v 277.752686 220.000000 -340.411652
v 277.703033 -0.000000 -220.411652
v 277.752686 220.000000 -220.411652
f 5 42 3 4
f 8 2 6 7
f 5 9 10 2
f 10 11 12 2
f 12 13 14 2
f 14 15 6 2
f 23 24 22 25
f 17 16 18 19
f 26 27 28 22
f 29 30 26 22
f 31 32 29 22
f 24 33 31 22
f 19 18 20 34
f 34 20 21 22
f 34 22 28
f 10 9 27 26
f 8 7 23 25
f 7 6 24 23
f 6 15 33 24
f 15 14 31 33
f 14 13 32 31
f 13 12 29 32
f 12 11 30 29
f 11 10 26 30
f 4 3 35 36
f 9 5 28 27
f 36 35 37 38
f 38 37 39 40
f 4 36 41
f 28 5 4 41
f 34 28 41 36
f 2 1 42 5
f 43 51 49 50
f 51 44 45 48
f 51 43 44
f 48 45 46 47
f 43 50 52 53
f 45 44 54 55
f 46 45 55 56
f 47 46 56 57
f 48 47 57 58
f 49 51 60 59
f 50 49 59 52
f 51 48 58 60
f 44 43 53 54
f 53 52 59 60
f 55 54 60 58
f 56 55 58 57
f 54 53 60
