# This file uses centimeters as units for non-parametric coordinates.

v -250.000000 -0.000092 -352.591522
v -85.163620 -0.000092 -352.591522
v -250.000000 72.204086 -352.591522
v -85.163620 72.204086 -352.591522
v -250.000000 72.204086 -399.058868
v -85.163620 72.204086 -399.058868
v -250.000000 -0.000092 -399.058868
v -85.163620 -0.000092 -399.058868
v -249.999939 250.295853 -399.167755
v -85.163612 244.999939 -399.167725
v -249.999969 245.000061 -399.167725
v -249.999969 250.246368 -368.313080
v -85.163612 244.999969 -368.772705
v -249.999969 245.000061 -368.772705
v -165.219025 72.499969 -399.167755
v -165.219040 244.999969 -399.167755
v -160.644455 244.999969 -399.167755
v -160.644440 72.499969 -399.167755
v -165.219025 72.499992 -371.689270
v -165.219040 245.000000 -371.689301
v -160.644440 245.000031 -371.689301
v -160.644440 72.499977 -371.689301
v -240.699860 245.000046 -399.167755
v -236.125275 245.000046 -399.167755
v -240.699860 245.000061 -371.689301
v -236.125275 245.000061 -371.689301
v -89.738197 244.999939 -399.167725
v -89.738197 244.999939 -371.689301
v -85.163612 244.999939 -399.167725
v -240.699860 67.500000 -399.167755
v -236.125275 67.500000 -399.167755
v -236.125244 67.499962 -371.689301
v -89.738197 67.499969 -399.167755
v -85.163612 67.499969 -399.167755
v -85.163612 67.499962 -371.689270
v -240.699890 250.000046 -400.690552
v -85.163612 249.999939 -400.690521
v -85.163612 -0.000031 -400.690582
v -240.699890 -0.000031 -400.690582
v -236.125244 201.875015 -399.167725
v -89.738197 201.874924 -399.167725
v -89.738197 201.874939 -375.766663
v -236.125244 201.875031 -375.766663
v -89.738197 198.920532 -399.167725
v -236.125244 198.920578 -399.167725
v -236.125275 158.750015 -399.167725
v -89.738197 158.749954 -399.167725
v -89.738197 158.749908 -375.766663
v -236.125244 158.750015 -375.766663
v -89.738197 155.795532 -399.167725
v -236.125244 155.795624 -399.167725
v -236.125244 118.125031 -399.167725
v -89.738197 118.124969 -399.167725
v -89.738197 118.124992 -375.766663
v -236.125244 118.125023 -375.766663
v -89.738197 115.170593 -399.167725
v -236.125244 115.170624 -399.167725
v -249.999969 259.704193 -399.167725
v -85.163612 259.704102 -399.167725
v -85.163612 259.753601 -361.990417
v -249.999969 259.753754 -361.990448
v -249.999969 263.322174 -399.167725
v -85.163612 263.322083 -399.167725
v -85.163612 263.322113 -361.826630
v -249.999969 263.322205 -361.826630
v -85.163612 244.999939 -371.689301
v -240.699860 67.499992 -371.689270
v -89.738197 67.499992 -371.689270
v -89.738197 198.920563 -375.766663
v -236.125275 198.920624 -375.766663
v -89.738197 155.795547 -375.766663
v -236.125244 155.795578 -375.766663
v -89.738197 115.170601 -375.766663
v -236.125275 115.170616 -375.766693
v -85.163612 250.295761 -399.167725
v -85.163612 250.246246 -368.313080
vt 0.375000 0.000000
vt 0.625000 0.000000
vt 0.375000 0.250000
vt 0.625000 0.250000
vt 0.375000 0.500000
vt 0.625000 0.500000
vt 0.875000 0.000000
vt 0.875000 0.250000
vt 0.125000 0.000000
vt 0.125000 0.250000
f 1/1 2/2 4/4 3/3
f 3/3 4/4 6/6 5/5
f 2/2 8/7 6/8 4/4
f 7/9 1/1 3/3 5/10
f 62 65 64 63
f 10 75 76 13
f 10 13 14 11
f 14 12 9 11
f 14 13 76 12
f 15 19 20 16
f 17 21 22 18
f 20 19 22 21
f 31 24 26 32
f 32 26 25 67
f 34 29 66 35
f 35 66 28 68
f 23 30 67 25
f 27 33 68 28
f 38 37 36 39
f 40 43 42 41
f 69 44 41 42
f 44 69 70 45
f 70 43 40 45
f 69 42 43 70
f 46 49 48 47
f 71 50 47 48
f 50 71 72 51
f 72 49 46 51
f 71 48 49 72
f 52 55 54 53
f 73 56 53 54
f 56 73 74 57
f 74 55 52 57
f 73 54 55 74
f 75 59 60 76
f 76 60 61 12
f 12 61 58 9
f 64 60 59 63
f 65 61 60 64
f 62 58 61 65
