# This file uses centimeters as units for non-parametric coordinates.

v 420.331787 0.000015 400.000183
v 587.347900 0.000015 400.000183
v 420.331787 0.000015 351.451080
v 587.347900 0.000015 351.451080
v 420.331787 0.000015 212.409668
v 587.347900 0.000015 212.409668
v 607.347290 0.000015 351.451080
v 607.347290 0.000015 212.409668
v 420.331787 0.000015 181.069244
v 587.347900 0.000015 181.069244
v -250.000641 0.000015 400.000183
v -250.000641 0.000015 181.069244
v 420.331787 0.000015 -400.001099
v -250.000641 0.000015 -400.001099
v 420.331635 428.685425 400.000000
v 587.347717 428.685425 400.000000
v 420.331635 428.685425 351.450897
v 587.347717 428.685425 351.450897
v 420.331635 428.685425 212.409485
v 587.347717 428.685425 212.409485
v 420.331635 428.685425 181.069061
v 587.347717 428.685425 181.069061
v 249.999969 428.685425 400.000031
v 420.331635 428.685425 -400.001282
v 249.999969 428.685425 -400.001282
v 16.770779 577.084961 400.000000
v 16.770779 577.084961 -381.038239
v -15.403459 577.084961 400.000000
v -15.403459 577.084961 -381.038239
v -250.000610 448.685425 400.000031
v -250.000244 448.685425 -400.001038
v -265.791748 398.534149 399.584656
v -265.791748 429.247162 399.584656
v -235.104202 429.247162 368.816956
v -235.104202 398.534149 368.816956
v 240.637405 398.534149 368.816956
v 271.092651 398.534149 399.584656
v 240.637405 429.247162 368.816956
v 271.092651 429.247162 399.584656
v -265.791748 429.247162 -400.733582
v -235.104202 429.247162 -371.580505
v -235.104202 398.534149 -371.580505
v -265.791748 398.534149 -400.733582
v -80.499786 429.247162 -371.580505
v -80.499786 398.534149 -371.580505
v -80.499786 398.534149 -400.733582
v -80.499786 429.247162 -400.733582
v 240.637405 429.247162 -370.458313
v 240.637405 398.534149 -370.458313
v 271.092651 429.247162 -399.754364
v 271.092651 398.534149 -399.754364
v 85.336372 429.247162 -370.458313
v 85.336372 398.534149 -370.458313
v 85.336372 429.247162 -399.754364
v 85.336372 398.534149 -399.754364
v 240.656204 0.000003 -400.352356
v 240.656204 0.000003 -370.183075
v 240.656204 398.544586 -400.352356
v 240.656204 398.544586 -370.183075
v 272.047302 398.544586 -400.352386
v 272.047272 398.544586 -370.183075
v 272.047302 0.000003 -400.352386
v 272.047272 0.000003 -370.183075
v -267.628754 0.000003 -400.352356
v -267.628754 0.000003 -370.183075
v -267.628754 398.544586 -400.352356
v -267.628754 398.544586 -370.183075
v -236.237686 398.544586 -400.352386
v -236.237686 398.544586 -370.183075
v -236.237686 0.000003 -400.352386
v -236.237686 0.000003 -370.183075
v -267.628754 0.000003 -192.697617
v -267.628754 0.000003 -162.528320
v -267.628754 398.544586 -192.697617
v -267.628754 398.544586 -162.528320
v -236.237686 398.544586 -192.697617
v -236.237686 398.544586 -162.528320
v -236.237686 0.000003 -192.697617
v -236.237686 0.000003 -162.528320
v 240.656204 0.000003 -8.534567
v 240.656204 0.000003 21.634726
v 240.656204 398.544586 -8.534567
v 240.656204 398.544586 21.634726
v 272.047302 398.544586 -8.534567
v 272.047272 398.544586 21.634726
v 272.047302 0.000003 -8.534567
v 272.047272 0.000003 21.634726
v 587.347717 0.000018 351.451019
v 607.347595 0.000018 351.451019
v 607.347595 220.000076 351.451019
v 587.347717 220.000076 351.451019
v 607.347595 0.000018 419.999847
v 587.347778 0.000018 400.000031
v 587.347717 220.000076 212.408737
v 607.347595 220.000076 212.408737
v 607.347595 448.685425 419.999847
v 587.347778 448.685425 400.000031
v 607.347595 448.685425 212.408737
v 587.347717 448.685425 212.408737
v 607.347290 0.000000 212.409637
v 607.347290 0.000000 161.069183
v 607.347290 448.685425 212.409637
v 607.347290 448.685425 161.069183
v 587.347290 448.685425 212.409637
v 587.347290 448.685425 181.069199
v 587.347290 0.000000 212.409637
v 587.347290 0.000000 181.069199
v 420.331787 448.685425 181.069199
v 420.331787 0.000000 181.069199
v 440.331787 448.685425 161.069183
v 440.331787 0.000000 161.069183
v 440.331787 448.685425 -420.000977
v 440.331787 0.000000 -420.000977
v 420.331787 0.000000 -400.001038
v 420.331787 448.685425 -400.001038
v -250.000244 448.685425 -400.001038
v -250.000244 0.000000 -400.001038
v -270.000244 448.685425 -420.000977
v -270.000244 0.000000 -420.000977
v -250.000244 448.685425 -145.178848
v -250.000244 0.000000 -145.178848
v -270.000244 448.685425 -145.178848
v -270.000244 0.000000 -145.178848
v 587.347778 0.000018 400.000031
v 607.347595 0.000014 419.999847
v 587.347778 70.000000 400.000031
v 231.647034 0.000018 400.000031
v 231.647034 70.000000 400.000031
v 231.647034 0.000018 419.999847
v 231.647034 70.000000 419.999847
v -223.938644 0.000018 400.000031
v -223.938644 70.000000 400.000031
v -223.938644 0.000018 419.999847
v -223.938644 70.000000 419.999847
v -250.000595 0.000018 400.000031
v -250.000595 70.000000 400.000031
v -270.000153 0.000014 419.999847
v -223.938583 249.999985 400.000031
v -223.938583 249.999985 419.999847
v -250.000595 249.999985 400.000031
v -270.000153 448.685425 419.999847
v 587.347778 250.000000 400.000031
v 607.347595 448.685547 419.999847
v 231.647034 250.000000 400.000031
v 231.647034 250.000000 419.999847
v 587.347778 448.685425 400.000031
v 231.647034 448.685425 400.000031
v 231.647034 448.685425 419.999847
v -223.938324 448.685425 419.999847
v -223.938324 448.685425 400.000031
v -250.000595 448.685425 400.000031
v -250.000595 0.000018 354.821167
v -250.000595 70.000000 354.821167
v -270.000153 0.000018 354.821167
v -270.000153 70.000000 354.821167
v -250.000595 249.999985 354.821167
v -270.000153 249.999985 354.821167
v -250.000595 448.685425 354.821167
v -270.000153 448.685425 354.821167
v -250.000595 0.000018 -145.179153
v -250.000595 70.000000 -145.179153
v -270.000153 0.000018 -145.179153
v -270.000153 70.000000 -145.179153
v -250.000595 249.999985 -145.179153
v -250.000595 448.685425 -145.179153
v -270.000153 249.999985 -145.179153
v -270.000153 448.685425 -145.179153
v -267.628754 0.000003 370.358215
v -267.628754 398.544586 370.358215
v -236.237686 398.544586 370.358215
v -236.237686 398.544586 400.527496
v -236.237686 0.000003 370.358215
v -236.237686 0.000003 400.527496
v 240.656204 0.000003 -192.383224
v 240.656204 0.000003 -162.213928
v 240.656204 398.544586 -192.383224
v 240.656204 398.544586 -162.213928
v 272.047302 398.544586 -192.383224
v 272.047272 398.544586 -162.213928
v 272.047302 0.000003 -192.383224
v 272.047272 0.000003 -162.213928
v 239.314590 0.000003 370.358215
v 239.314590 0.000003 400.527496
v 239.314590 398.544586 370.358215
v 239.314590 398.544586 400.527496
v 270.705688 398.544586 370.358215
v 270.705658 398.544586 400.527496
v 270.705688 0.000003 370.358215
v 270.705658 0.000003 400.527496
vt 0.000000 0.000000
vt 1.000000 0.000000
vt 0.000000 1.000000
vt 1.000000 1.000000
vt 0.000000 0.000000
vt 1.000000 0.000000
vt 1.000000 1.000000
vt 0.000000 1.000000
vt 0.000000 0.000000
vt 1.000000 0.000000
vt 1.000000 1.000000
vt 0.000000 1.000000
vt 0.000000 0.000000
vt 1.000000 0.000000
vt 1.000000 1.000000
vt 0.000000 1.000000
vt 0.000000 0.000000
vt 0.000000 1.000000
vt 0.000000 0.000000
vt 0.000000 0.000000
vt 1.000000 0.000000
vt 1.000000 1.000000
vt 0.000000 0.000000
vt 1.000000 0.000000
vt 1.000000 1.000000
vt 0.000000 1.000000
vt 0.000000 0.000000
vt 0.000000 1.000000
vt 1.000000 1.000000
vt 1.000000 0.000000
vt 0.000000 0.000000
vt 0.000000 1.000000
vt 1.000000 1.000000
vt 1.000000 0.000000
vt 0.000000 0.000000
vt 0.000000 1.000000
vt 1.000000 1.000000
vt 1.000000 0.000000
vt 1.000000 0.000000
vt 0.000000 1.000000
vt 1.000000 1.000000
vt 1.000000 0.500000
vt 0.000000 0.500000
vt 0.000000 0.000000
vt 1.000000 0.000000
vt 1.000000 0.500000
vt 0.000000 0.500000
vt 1.000000 1.000000
vt 0.000000 1.000000
vt 0.000000 1.000000
vt 1.000000 0.000000
vt 1.000000 0.000000
vt 1.000000 0.000000
vt 0.000000 0.000000
vt 0.625000 0.000000
vt 0.875000 0.000000
vt 0.875000 0.000000
vt 0.625000 0.000000
vt 0.875000 0.250000
vt 0.875000 0.250000
vt 0.625000 0.250000
vt 0.625000 0.250000
vt 0.625000 0.500000
vt 0.625000 0.750000
vt 0.625000 0.750000
vt 0.625000 0.500000
vt 0.375000 0.750000
vt 0.375000 0.750000
vt 0.375000 0.500000
vt 0.375000 0.500000
vt 0.625000 0.750000
vt 0.625000 0.500000
vt 0.625000 0.750000
vt 0.625000 0.750000
vt 0.625000 0.500000
vt 0.625000 0.500000
vt 0.875000 0.250000
vt 0.875000 0.000000
vt 0.875000 0.250000
vt 0.875000 0.000000
vt 0.875000 0.000000
vt 0.875000 0.250000
vt 0.875000 0.250000
vt 0.875000 0.000000
vt 0.875000 0.250000
vt 0.875000 0.000000
vt 0.875000 0.000000
vt 0.875000 0.250000
vt 0.375000 0.000000
vt 0.625000 0.000000
vt 0.625000 0.250000
vt 0.375000 0.250000
vt 0.375000 0.500000
vt 0.625000 0.500000
vt 0.625000 0.750000
vt 0.375000 0.750000
vt 0.875000 0.000000
vt 0.875000 0.250000
vt 0.125000 0.000000
vt 0.125000 0.250000
vt 0.375000 0.000000
vt 0.625000 0.000000
vt 0.625000 0.250000
vt 0.375000 0.250000
vt 0.375000 0.500000
vt 0.625000 0.500000
vt 0.625000 0.750000
vt 0.375000 0.750000
vt 0.875000 0.000000
vt 0.875000 0.250000
vt 0.125000 0.000000
vt 0.125000 0.250000
vt 0.375000 0.500000
vt 0.625000 0.500000
vt 0.625000 0.750000
vt 0.375000 0.750000
vt 0.625000 0.000000
vt 0.875000 0.000000
vt 0.875000 0.250000
vt 0.625000 0.250000
vt 0.125000 0.000000
vt 0.375000 0.000000
vt 0.375000 0.250000
vt 0.125000 0.250000
vt 0.375000 0.000000
vt 0.625000 0.000000
vt 0.625000 0.250000
vt 0.375000 0.250000
vt 0.375000 0.500000
vt 0.625000 0.500000
vt 0.625000 0.750000
vt 0.375000 0.750000
vt 0.875000 0.000000
vt 0.875000 0.250000
vt 0.125000 0.000000
vt 0.125000 0.250000
vt 0.625000 0.750000
vt 0.375000 0.750000
vt 0.375000 0.500000
vt 0.625000 0.500000
vt 0.125000 0.000000
vt 0.375000 0.000000
vt 0.375000 0.250000
vt 0.375000 0.500000
vt 0.625000 0.500000
vt 0.375000 0.500000
vt 0.625000 0.250000
vt 0.625000 0.000000
vt 0.875000 0.000000
vt 0.625000 0.500000
vt 0.375000 0.000000
vt 0.625000 0.000000
vt 0.625000 0.250000
vt 0.375000 0.250000
vt 0.375000 0.500000
vt 0.625000 0.500000
vt 0.625000 0.750000
vt 0.375000 0.750000
vt 0.125000 0.000000
vt 0.125000 0.250000
vt 0.875000 0.000000
vt 0.875000 0.250000
vt 0.875000 0.250000
vt 0.875000 0.000000
vt 0.875000 0.250000
vt 0.875000 0.000000
vt 0.875000 0.000000
vt 0.875000 0.250000
vt 0.875000 0.000000
vt 0.875000 0.250000
vt 0.875000 0.000000
vt 0.875000 0.250000
vt 0.875000 0.250000
vt 0.875000 0.000000
vt 0.875000 0.250000
vt 0.875000 0.000000
vt 0.875000 0.250000
vt 0.875000 0.000000
vt 0.875000 0.000000
vt 0.875000 0.250000
vt 0.875000 0.000000
vt 0.875000 0.250000
vt 0.875000 0.250000
vt 0.875000 0.000000
vt 0.875000 0.250000
vt 0.875000 0.000000
vt 0.375000 0.250000
vt 0.375000 0.000000
vt 0.375000 0.000000
vt 0.375000 0.250000
vt 0.375000 0.125000
vt 0.375000 0.250000
vt 0.375000 0.000000
vt 0.375000 0.250000
vt 0.375000 0.250000
vt 0.375000 0.000000
vt 0.375000 0.250000
vt 0.375000 0.250000
vt 0.375000 0.000000
vt 0.375000 0.000000
vt 0.375000 0.250000
vt 0.375000 0.125000
vt 0.375000 0.250000
vt 0.375000 0.250000
vt 0.375000 0.250000
vt 0.375000 0.250000
vt 0.375000 0.250000
vt 0.375000 0.250000
vt 0.375000 0.250000
vt 0.375000 0.250000
vt 0.375000 0.250000
vt 0.375000 0.250000
vt 0.375000 0.250000
vt 0.375000 0.250000
vt 0.375000 0.250000
vt 0.375000 0.250000
vt 0.375000 0.250000
vt 0.375000 0.250000
vt 0.375000 0.250000
vt 0.375000 0.250000
vt 0.375000 0.250000
vt 0.375000 0.250000
vt 0.375000 0.000000
vt 0.375000 0.125000
vt 0.375000 0.000000
vt 0.375000 0.250000
vt 0.375000 0.250000
vt 0.375000 0.250000
vt 0.375000 0.250000
vt 0.375000 0.250000
vt 0.375000 0.250000
vt 0.375000 0.000000
vt 0.375000 0.250000
vt 0.375000 0.250000
vt 0.375000 0.000000
vt 0.375000 0.250000
vt 0.375000 0.250000
vt 0.375000 0.250000
vt 0.375000 0.250000
vt 0.375000 0.500000
vt 0.625000 0.500000
vt 0.625000 0.750000
vt 0.375000 0.750000
vt 0.125000 0.000000
vt 0.375000 0.000000
vt 0.375000 0.250000
vt 0.125000 0.250000
vt 0.375000 0.000000
vt 0.625000 0.000000
vt 0.625000 0.250000
vt 0.375000 0.250000
vt 0.375000 0.500000
vt 0.625000 0.500000
vt 0.625000 0.750000
vt 0.375000 0.750000
vt 0.875000 0.000000
vt 0.875000 0.250000
vt 0.125000 0.000000
vt 0.125000 0.250000
vt 0.375000 0.000000
vt 0.625000 0.000000
vt 0.625000 0.250000
vt 0.375000 0.250000
vt 0.375000 0.500000
vt 0.625000 0.500000
vt 0.625000 0.750000
vt 0.375000 0.750000
vt 0.125000 0.000000
vt 0.125000 0.250000
f 1/1 2/2 4/4 3/3
f 3/5 4/6 6/7 5/8
f 6/9 4/10 7/11 8/12
f 5/13 6/14 10/15 9/16
f 12/22 11/18 1/17 3/19
f 12/23 9/24 13/25 14/26
f 12/22 3/19 5/20 9/21
f 15/27 17/28 18/29 16/30
f 17/31 19/32 20/33 18/34
f 19/35 21/36 22/37 20/38
f 21/39 25/40 24/41
f 26/42 27/43 25/44 23/45
f 28/46 29/47 27/43 26/42
f 30/48 31/49 29/47 28/46
f 26/42 23/45 30/48 28/46
f 25/44 27/43 29/47 31/49
f 23/50 25/40 21/51 19/52
f 23/50 19/52 17/53 15/54
f 32/55 35/56 36/57 37/58
f 35/56 34/59 38/60 36/57
f 33/61 32/55 37/58 39/62
f 34/63 35/64 42/65 41/66
f 35/64 32/67 43/68 42/65
f 32/67 33/69 40/70 43/68
f 41/66 42/65 45/71 44/72
f 42/65 43/73 46/74 45/71
f 43/73 40/75 47/76 46/74
f 40/75 41/66 44/72 47/76
f 36/57 38/60 48/77 49/78
f 39/79 37/80 51/81 50/82
f 37/80 36/57 49/78 51/81
f 49/78 48/77 52/83 53/84
f 50/85 51/86 55/87 54/88
f 51/86 49/78 53/84 55/87
f 56/89 57/90 59/91 58/92
f 60/93 61/94 63/95 62/96
f 57/90 63/97 61/98 59/91
f 62/99 56/89 58/92 60/100
f 64/101 65/102 67/103 66/104
f 68/105 69/106 71/107 70/108
f 65/102 71/109 69/110 67/103
f 70/111 64/101 66/104 68/112
f 76/113 77/114 79/115 78/116
f 73/117 79/118 77/119 75/120
f 78/121 72/122 74/123 76/124
f 80/125 81/126 83/127 82/128
f 84/129 85/130 87/131 86/132
f 81/126 87/133 85/134 83/127
f 86/135 80/125 82/128 84/136
f 89/137 88/138 91/139 90/140
f 91/139 88/141 93/142 97/143
f 90/140 91/139 94/144 95/145
f 97/143 99/146 94/144 91/139
f 90/140 96/147 92/148 89/149
f 98/150 96/147 90/140 95/145
f 100/151 101/152 103/153 102/154
f 104/155 105/156 107/157 106/158
f 106/159 100/151 102/154 104/160
f 107/161 105/162 108/163 109/164
f 103/165 101/166 111/167 110/168
f 110/168 111/167 113/169 112/170
f 109/171 108/172 115/173 114/174
f 114/174 115/173 116/175 117/176
f 112/177 113/178 119/179 118/180
f 121/181 120/182 122/183 123/184
f 117/176 116/175 120/182 121/181
f 118/185 119/186 123/184 122/183
f 126/187 124/188 127/189 128/190
f 125/191 130/192 129/193
f 130/192 125/191 143/194 145/195
f 128/190 127/189 131/196 132/197
f 129/193 130/192 134/198 133/199
f 130/192 128/190 132/197 134/198
f 132/197 131/196 135/200 136/201
f 133/199 134/198 137/202
f 134/198 132/197 138/203 139/204
f 132/197 136/201 140/205 138/203
f 137/202 134/198 139/204 141/206
f 128/190 144/207 142/208 126/187
f 130/192 145/195 144/207 128/190
f 142/208 144/207 147/209 146/210
f 145/195 143/194 148/211
f 144/207 145/195 139/212 138/213
f 145/195 148/211 149/214 139/212
f 147/209 144/207 138/213 150/215
f 139/212 149/214 141/216
f 150/215 138/213 140/217 151/218
f 156/219 153/220 155/221 157/222
f 136/201 135/200 152/223 153/220
f 137/224 155/221 154/225
f 140/205 136/201 153/220 156/219
f 137/224 141/226 157/222 155/221
f 151/218 140/217 156/227 158/228
f 141/229 159/230 157/231
f 153/220 152/223 160/232 161/233
f 154/225 155/221 163/234 162/235
f 155/221 153/220 161/233 163/234
f 158/228 156/227 164/236 165/237
f 156/227 157/231 166/238 164/236
f 157/231 159/230 167/239 166/238
f 170/240 171/241 173/242 172/243
f 172/244 168/245 169/246 170/247
f 174/248 175/249 177/250 176/251
f 178/252 179/253 181/254 180/255
f 175/249 181/256 179/257 177/250
f 180/258 174/248 176/251 178/259
f 182/260 183/261 185/262 184/263
f 186/264 187/265 189/266 188/267
f 188/268 182/260 184/263 186/269
