# This file uses centimeters as units for non-parametric coordinates.

v 163.806259 81.861633 -23.551588
v 162.921906 58.569534 -23.185284
v 157.025269 53.121117 -20.742819
v 156.878876 51.580143 -20.682178
v 164.717667 81.861633 -22.640169
v 164.351364 58.569534 -21.755825
v 161.908890 53.121120 -15.859195
v 161.848251 51.580143 -15.712793
v 166.006622 81.861633 -22.640171
v 166.372925 58.569534 -21.755823
v 168.815384 53.121120 -15.859193
v 168.876022 51.580143 -15.712790
v 166.918030 81.861633 -23.551592
v 167.802383 58.569534 -23.185280
v 173.699005 53.121117 -20.742815
v 173.845413 51.580143 -20.682175
v 166.918030 81.861633 -24.840534
v 167.802383 58.569534 -25.206839
v 173.699005 53.121120 -27.649303
v 173.845413 51.580143 -27.709944
v 166.006607 81.861633 -25.751953
v 166.372925 58.569534 -26.636299
v 168.815384 53.121117 -32.532932
v 168.876022 51.580143 -32.679333
v 164.717667 81.861633 -25.751951
v 164.351364 58.569534 -26.636299
v 161.908905 53.121117 -32.532928
v 161.848251 51.580143 -32.679333
v 163.806244 81.861633 -24.840530
v 162.921906 58.569534 -25.206842
v 157.025269 53.121120 -27.649307
v 156.878876 51.580143 -27.709949
v 182.583725 76.490952 -28.249269
v 179.162476 76.490952 -35.256081
v 173.137558 76.490952 -40.085812
v 165.362122 76.490952 -41.885311
v 157.586700 76.490952 -40.085812
v 151.561783 76.490952 -35.256081
v 148.140533 76.490952 -28.249266
v 148.140533 76.490952 -20.142855
v 151.561783 76.490952 -13.136040
v 157.586700 76.490952 -8.306311
v 165.362122 76.490952 -6.506813
v 173.137558 76.490952 -8.306309
v 179.162476 76.490952 -13.136041
v 182.583725 76.490952 -20.142859
v 177.045120 100.743988 -26.945723
v 174.724167 100.743988 -31.699091
v 170.636917 100.743996 -34.975533
v 165.362122 100.743996 -36.196301
v 160.087341 100.743996 -34.975536
v 156.000092 100.743988 -31.699089
v 153.679138 100.743988 -26.945721
v 153.679138 100.743988 -21.446400
v 156.000092 100.744003 -16.693039
v 160.087341 100.743996 -13.416587
v 165.362122 100.743988 -12.195822
v 170.636917 100.743996 -13.416587
v 174.724167 100.744003 -16.693039
v 177.045120 100.743988 -21.446402
f 1 29 30 2
f 3 2 30 31
f 32 4 3 31
f 5 1 2 6
f 2 3 7 6
f 3 4 8 7
f 9 5 6 10
f 6 7 11 10
f 7 8 12 11
f 13 9 10 14
f 10 11 15 14
f 11 12 16 15
f 17 13 14 18
f 14 15 19 18
f 15 16 20 19
f 21 17 18 22
f 18 19 23 22
f 19 20 24 23
f 25 21 22 26
f 22 23 27 26
f 23 24 28 27
f 29 25 26 30
f 26 27 31 30
f 27 28 32 31
f 46 33 47 60
f 48 47 33 34
f 49 48 34 35
f 50 49 35 36
f 51 50 36 37
f 52 51 37 38
f 53 52 38 39
f 54 53 39 40
f 55 54 40 41
f 56 55 41 42
f 57 56 42 43
f 58 57 43 44
f 59 58 44 45
f 60 59 45 46
